{"accessors" : [{"bufferView" : 0, "byteOffset" : 0, "componentType" : 5125, "count" : 1770210, "type" : "SCALAR", "max" : [1770209], "min" : [0]}, {"bufferView" : 1, "byteOffset" : 0, "componentType" : 5126, "count" : 1770210, "type" : "VEC3", "max" : [83.30770111083984, 68.50299835205078, 70.37699890136719], "min" : [-107.97019958496094, -276.5203857421875, -2.367500066757202]}, {"bufferView" : 1, "byteOffset" : 12, "componentType" : 5126, "count" : 1770210, "type" : "VEC3", "max" : [1.0000044107437134, 1.0000044107437134, 1.0000044107437134], "min" : [-1.0000044107437134, -1.0000044107437134, -1.0000044107437134]}], "asset" : {"generator" : "Aspose.3D 20.11", "version" : "2.0"}, "buffers" : [{"uri" : "buffer.bin", "byteLength" : 49565888}], "bufferViews" : [{"buffer" : 0, "byteOffset" : 0, "byteLength" : 7080840, "target" : 34963}, {"buffer" : 0, "byteOffset" : 7080844, "byteLength" : 42485040, "byteStride" : 24, "target" : 34962}], "meshes" : [{"primitives" : [{"attributes" : {"POSITION" : 1, "NORMAL" : 2}, "indices" : 0, "mode" : 4}]}], "nodes" : [{"mesh" : 0, "name" : ""}], "scene" : 0, "scenes" : [{"nodes" : [0]}]}